# xmcd CD database file
#
# Track frame offsets:
#	150
#	11240
#	30411
#	47576
#	84732
#	115139
#	135076
#
# Disc length: 2184 seconds
#
# Revision: 0
# Processed by: cddbd v1.5.1PL0 Copyright (c) Steve Scherf et al.
# Submitted via: CDex 1.51
#
DISCID=4b088607
DTITLE=Roy Buchanan - Live Stock
DYEAR=1974
DGENRE=Blues
TTITLE0=Reelin' And Rockin'
TTITLE1=Hot Cha
TTITLE2=Further On Up The Road
TTITLE3=Roy's Bluz
TTITLE4=Can I Change My Mind
TTITLE5=I'm A Ram
TTITLE6=I'm Evil
EXTD=YEAR: 1974
EXTT0=
EXTT1=
EXTT2=
EXTT3=
EXTT4=
EXTT5=
EXTT6=
PLAYORDER=
